<?xml version="1.0" standalone="no"?>
<!DOCTYPE svg PUBLIC "-//W3C//DTD SVG 20010904//EN"
 "http://www.w3.org/TR/2001/REC-SVG-20010904/DTD/svg10.dtd">
<svg version="1.0" xmlns="http://www.w3.org/2000/svg"
 width="512.000000pt" height="512.000000pt" viewBox="0 0 512.000000 512.000000"
 preserveAspectRatio="xMidYMid meet">
<metadata>
Created by potrace 1.14, written by Peter Selinger 2001-2017
</metadata>
<g transform="translate(0.000000,512.000000) scale(0.100000,-0.100000)"
fill="#000000" stroke="none">
<path d="M2315 5110 c-125 -29 -227 -131 -255 -255 -6 -27 -13 -115 -15 -195
-3 -80 -8 -154 -13 -165 -30 -66 -41 -84 -83 -125 -106 -105 -301 -114 -410
-19 -13 11 -62 55 -108 97 -46 42 -103 89 -127 104 -41 26 -129 48 -170 42
-11 -1 -35 -4 -54 -7 -47 -6 -87 -27 -157 -84 -88 -71 -311 -299 -344 -351
-85 -134 -62 -283 61 -412 169 -177 212 -244 208 -330 -2 -59 -16 -128 -30
-145 -5 -5 -22 -29 -39 -53 -38 -54 -106 -98 -173 -111 -28 -6 -103 -13 -166
-16 -138 -6 -175 -10 -215 -20 -72 -19 -151 -92 -189 -174 -20 -43 -21 -62
-21 -331 0 -312 2 -321 65 -394 86 -99 146 -123 330 -131 106 -5 207 -14 240
-22 55 -13 142 -92 167 -152 25 -58 27 -73 27 -147 -1 -96 -25 -142 -135 -256
-97 -101 -150 -173 -168 -230 -26 -79 -8 -190 41 -262 34 -50 366 -376 383
-376 8 0 15 -4 15 -9 0 -17 103 -53 154 -53 108 -1 178 36 316 166 116 109
190 147 285 147 76 0 141 -23 198 -72 90 -77 104 -119 112 -340 7 -195 31
-258 131 -347 51 -45 64 -52 128 -63 123 -20 496 -15 578 8 57 17 178 123 184
162 0 3 3 13 7 21 11 30 17 69 22 156 8 143 16 227 22 254 29 124 168 223 312
221 71 -1 126 -22 177 -68 16 -15 63 -57 103 -93 41 -36 79 -70 86 -77 6 -6
34 -23 62 -37 68 -36 160 -44 238 -22 79 24 128 61 286 220 189 189 231 253
236 363 6 134 -10 157 -382 540 -242 250 -451 458 -501 499 -69 57 -120 43
-171 -44 -15 -26 -30 -49 -33 -52 -3 -3 -17 -23 -30 -45 -66 -111 -209 -268
-315 -343 -229 -165 -543 -222 -864 -157 -30 6 -152 45 -166 54 -5 3 -12 6
-15 6 -12 1 -117 58 -168 92 -66 43 -262 235 -262 257 0 8 -4 16 -8 18 -16 6
-81 124 -116 209 -48 117 -82 247 -68 261 17 17 200 19 1932 22 883 2 1608 4
1611 5 3 0 15 18 27 39 19 34 21 53 21 192 0 163 -6 196 -48 265 -64 106 -154
144 -357 150 -73 3 -146 7 -164 10 -130 23 -227 141 -238 288 -4 60 -2 73 27
130 17 34 49 82 72 107 63 68 158 173 173 190 24 28 48 105 47 154 0 128 -30
178 -225 371 -89 88 -186 177 -216 197 -115 75 -264 70 -376 -14 -17 -13 -70
-60 -119 -105 -113 -107 -171 -136 -268 -135 -122 0 -218 52 -275 147 -34 57
-39 83 -47 250 -3 66 -8 131 -10 145 -2 14 -7 40 -9 57 -14 83 -121 192 -214
215 -62 16 -487 22 -547 8z m532 -224 c28 -32 34 -66 38 -210 3 -102 9 -155
28 -232 2 -6 18 -41 36 -79 96 -194 331 -316 542 -280 116 19 192 62 325 180
108 97 118 104 149 119 62 29 99 4 321 -221 162 -163 165 -187 46 -314 -139
-150 -179 -204 -207 -285 -21 -61 -27 -230 -9 -296 27 -105 125 -233 229 -300
91 -59 136 -69 365 -83 192 -11 195 -14 195 -162 l0 -106 -523 -1 c-340 -1
-526 3 -530 9 -4 6 -7 19 -8 30 -1 19 -9 80 -20 155 -8 51 -67 225 -104 305
-104 223 -330 457 -551 573 -64 33 -158 74 -179 78 -3 0 -12 3 -20 7 -38 15
-152 41 -240 53 -68 10 -216 11 -295 2 -286 -33 -564 -167 -761 -368 -94 -97
-151 -169 -194 -249 -14 -25 -27 -48 -30 -51 -18 -18 -104 -240 -115 -298 -3
-15 -8 -42 -11 -61 -3 -18 -8 -43 -11 -55 -10 -40 -11 -281 -2 -344 15 -104
18 -120 50 -220 34 -106 104 -256 146 -311 7 -9 33 -44 59 -79 110 -149 283
-289 459 -373 92 -44 237 -93 310 -105 17 -2 53 -8 82 -13 70 -11 296 -6 363
8 30 6 68 14 83 17 116 20 338 120 455 206 73 52 225 205 283 283 24 33 47 62
52 63 4 2 7 9 7 16 0 7 9 21 19 30 19 17 25 12 176 -141 262 -265 409 -418
506 -530 69 -79 76 -116 36 -180 -27 -43 -212 -227 -298 -297 -88 -72 -125
-63 -256 61 -89 83 -193 158 -248 179 -40 15 -77 19 -185 18 -124 0 -140 -2
-190 -26 -114 -53 -216 -152 -267 -259 -32 -68 -34 -78 -47 -321 -13 -217 -26
-225 -356 -222 -280 2 -287 8 -295 226 -5 151 -8 179 -30 254 -31 107 -97 196
-200 268 -94 67 -133 78 -269 81 -207 4 -234 -10 -504 -253 -46 -41 -84 -56
-128 -48 -29 6 -65 36 -193 164 -87 86 -166 170 -176 185 -39 60 -21 106 85
217 157 165 213 277 212 430 -1 181 -113 360 -278 447 -77 40 -107 45 -339 57
-165 9 -203 27 -211 98 -5 42 -6 448 -2 468 15 64 53 80 210 85 239 7 329 34
437 131 150 135 216 345 163 520 -28 92 -109 215 -189 289 -52 48 -113 130
-113 153 0 44 31 90 133 195 135 139 212 205 257 218 50 15 92 -8 195 -106
109 -104 188 -158 265 -183 36 -12 165 -28 180 -23 3 1 24 4 47 7 148 15 312
133 384 276 50 99 62 174 68 440 1 42 39 94 74 101 12 2 128 5 257 6 l236 1
21 -24z m-97 -1269 c170 -24 379 -117 499 -221 188 -164 288 -319 355 -547 13
-47 27 -109 31 -139 4 -30 9 -59 12 -63 19 -31 -13 -32 -1069 -30 -579 1
-1057 2 -1062 2 -5 1 -6 36 -3 79 9 131 91 340 188 484 61 89 204 229 280 273
10 6 39 23 66 38 100 59 271 118 378 130 36 4 289 -1 325 -6z"/>
</g>
</svg>
